<mxfile host="Electron" modified="2023-12-03T02:36:00.102Z" agent="Mozilla/5.0 (Windows NT 10.0; Win64; x64) AppleWebKit/537.36 (KHTML, like Gecko) draw.io/22.0.3 Chrome/114.0.5735.289 Electron/25.8.4 Safari/537.36" etag="zWlmC5kYloUR_2EfhEzC" version="22.0.3" type="device">
  <diagram name="Page-1" id="05MDthw4udVQJRXFuVH-">
    <mxGraphModel dx="1882" dy="1195" grid="1" gridSize="10" guides="1" tooltips="1" connect="1" arrows="1" fold="1" page="1" pageScale="1" pageWidth="850" pageHeight="1100" math="0" shadow="0">
      <root>
        <mxCell id="0" />
        <mxCell id="1" parent="0" />
        <mxCell id="MEASq9r_x-gCQqto8ehu-85" value="" style="ellipse;html=1;shape=startState;fillColor=#000000;strokeColor=#ff0000;rounded=1;shadow=0;comic=0;labelBackgroundColor=none;fontFamily=Verdana;fontSize=12;fontColor=#000000;align=center;direction=south;" parent="1" vertex="1">
          <mxGeometry x="10" y="75" width="30" height="30" as="geometry" />
        </mxCell>
        <mxCell id="MEASq9r_x-gCQqto8ehu-86" value="Login Page" style="rounded=1;whiteSpace=wrap;html=1;arcSize=24;fillColor=#ffffc0;strokeColor=#ff0000;shadow=0;comic=0;labelBackgroundColor=none;fontFamily=Verdana;fontSize=12;fontColor=#000000;align=center;" parent="1" vertex="1">
          <mxGeometry x="120" y="250" width="120" height="60" as="geometry" />
        </mxCell>
        <mxCell id="MEASq9r_x-gCQqto8ehu-87" value="Off" style="rounded=1;whiteSpace=wrap;html=1;arcSize=24;fillColor=#ffffc0;strokeColor=#ff0000;shadow=0;comic=0;labelBackgroundColor=none;fontFamily=Verdana;fontSize=12;fontColor=#000000;align=center;" parent="1" vertex="1">
          <mxGeometry x="120" y="60" width="120" height="60" as="geometry" />
        </mxCell>
        <mxCell id="MEASq9r_x-gCQqto8ehu-88" style="edgeStyle=orthogonalEdgeStyle;html=1;exitX=1;exitY=0.25;entryX=0.25;entryY=0;labelBackgroundColor=none;endArrow=open;endSize=8;strokeColor=#ff0000;fontFamily=Verdana;fontSize=12;align=left;" parent="1" source="MEASq9r_x-gCQqto8ehu-90" target="MEASq9r_x-gCQqto8ehu-95" edge="1">
          <mxGeometry relative="1" as="geometry" />
        </mxCell>
        <mxCell id="MEASq9r_x-gCQqto8ehu-89" value="Error" style="edgeLabel;html=1;align=center;verticalAlign=middle;resizable=0;points=[];" parent="MEASq9r_x-gCQqto8ehu-88" connectable="0" vertex="1">
          <mxGeometry x="-0.2563" relative="1" as="geometry">
            <mxPoint as="offset" />
          </mxGeometry>
        </mxCell>
        <mxCell id="MEASq9r_x-gCQqto8ehu-90" value="Error Validation" style="rounded=1;whiteSpace=wrap;html=1;arcSize=24;fillColor=#ffffc0;strokeColor=#ff0000;shadow=0;comic=0;labelBackgroundColor=none;fontFamily=Verdana;fontSize=12;fontColor=#000000;align=center;" parent="1" vertex="1">
          <mxGeometry x="320" y="140" width="120" height="60" as="geometry" />
        </mxCell>
        <mxCell id="MEASq9r_x-gCQqto8ehu-91" style="edgeStyle=orthogonalEdgeStyle;html=1;exitX=0.75;exitY=0;entryX=1;entryY=0.5;labelBackgroundColor=none;endArrow=open;endSize=8;strokeColor=#ff0000;fontFamily=Verdana;fontSize=12;align=left;" parent="1" source="MEASq9r_x-gCQqto8ehu-95" target="MEASq9r_x-gCQqto8ehu-87" edge="1">
          <mxGeometry relative="1" as="geometry">
            <Array as="points">
              <mxPoint x="760" y="90" />
            </Array>
          </mxGeometry>
        </mxCell>
        <mxCell id="MEASq9r_x-gCQqto8ehu-92" value="Clsoe App/ Exit" style="edgeLabel;html=1;align=center;verticalAlign=middle;resizable=0;points=[];" parent="MEASq9r_x-gCQqto8ehu-91" connectable="0" vertex="1">
          <mxGeometry x="0.1441" y="2" relative="1" as="geometry">
            <mxPoint as="offset" />
          </mxGeometry>
        </mxCell>
        <mxCell id="MEASq9r_x-gCQqto8ehu-93" style="edgeStyle=elbowEdgeStyle;html=1;exitX=0;exitY=0.75;entryX=1;entryY=0.75;labelBackgroundColor=none;endArrow=open;endSize=8;strokeColor=#ff0000;fontFamily=Verdana;fontSize=12;align=left;elbow=vertical;" parent="1" source="MEASq9r_x-gCQqto8ehu-95" target="MEASq9r_x-gCQqto8ehu-96" edge="1">
          <mxGeometry relative="1" as="geometry" />
        </mxCell>
        <mxCell id="MEASq9r_x-gCQqto8ehu-94" value="Service Request" style="edgeLabel;html=1;align=center;verticalAlign=middle;resizable=0;points=[];" parent="MEASq9r_x-gCQqto8ehu-93" connectable="0" vertex="1">
          <mxGeometry x="0.1467" y="-3" relative="1" as="geometry">
            <mxPoint as="offset" />
          </mxGeometry>
        </mxCell>
        <mxCell id="MEASq9r_x-gCQqto8ehu-95" value="Error!" style="rounded=1;whiteSpace=wrap;html=1;arcSize=24;fillColor=#ffffc0;strokeColor=#ff0000;shadow=0;comic=0;labelBackgroundColor=none;fontFamily=Verdana;fontSize=12;fontColor=#000000;align=center;" parent="1" vertex="1">
          <mxGeometry x="670" y="250" width="120" height="60" as="geometry" />
        </mxCell>
        <mxCell id="MEASq9r_x-gCQqto8ehu-96" value="Maintenance" style="rounded=1;whiteSpace=wrap;html=1;arcSize=24;fillColor=#ffffc0;strokeColor=#ff0000;shadow=0;comic=0;labelBackgroundColor=none;fontFamily=Verdana;fontSize=12;fontColor=#000000;align=center;" parent="1" vertex="1">
          <mxGeometry x="400" y="250" width="120" height="60" as="geometry" />
        </mxCell>
        <mxCell id="MEASq9r_x-gCQqto8ehu-97" style="edgeStyle=elbowEdgeStyle;html=1;labelBackgroundColor=none;endArrow=open;endSize=8;strokeColor=#ff0000;fontFamily=Verdana;fontSize=12;align=left;" parent="1" source="MEASq9r_x-gCQqto8ehu-100" target="MEASq9r_x-gCQqto8ehu-95" edge="1">
          <mxGeometry relative="1" as="geometry" />
        </mxCell>
        <mxCell id="MEASq9r_x-gCQqto8ehu-98" value="Error" style="edgeLabel;html=1;align=center;verticalAlign=middle;resizable=0;points=[];" parent="MEASq9r_x-gCQqto8ehu-97" connectable="0" vertex="1">
          <mxGeometry x="-0.168" relative="1" as="geometry">
            <mxPoint as="offset" />
          </mxGeometry>
        </mxCell>
        <mxCell id="MEASq9r_x-gCQqto8ehu-198" style="edgeStyle=orthogonalEdgeStyle;rounded=0;orthogonalLoop=1;jettySize=auto;html=1;entryX=0.5;entryY=0;entryDx=0;entryDy=0;endArrow=none;endFill=0;" parent="1" source="MEASq9r_x-gCQqto8ehu-100" target="MEASq9r_x-gCQqto8ehu-143" edge="1">
          <mxGeometry relative="1" as="geometry" />
        </mxCell>
        <mxCell id="MEASq9r_x-gCQqto8ehu-100" value="Register New Resident" style="swimlane;whiteSpace=wrap;html=1;rounded=1;shadow=0;comic=0;labelBackgroundColor=none;strokeWidth=1;fontFamily=Verdana;fontSize=12;align=center;startSize=23;" parent="1" vertex="1">
          <mxGeometry x="-25" y="435" width="930" height="200" as="geometry" />
        </mxCell>
        <mxCell id="tPrnqZLxL2Oyq7Z4bfn5-24" value="Resident Name input" style="rounded=1;whiteSpace=wrap;html=1;arcSize=24;fillColor=#ffffc0;strokeColor=#ff0000;shadow=0;comic=0;labelBackgroundColor=none;fontFamily=Verdana;fontSize=12;fontColor=#000000;align=center;" parent="MEASq9r_x-gCQqto8ehu-100" vertex="1">
          <mxGeometry x="125" y="77.5" width="120" height="60" as="geometry" />
        </mxCell>
        <mxCell id="tPrnqZLxL2Oyq7Z4bfn5-25" value="" style="ellipse;html=1;shape=endState;fillColor=#000000;strokeColor=#ff0000;rounded=1;shadow=0;comic=0;labelBackgroundColor=none;fontFamily=Verdana;fontSize=12;fontColor=#000000;align=center;" parent="MEASq9r_x-gCQqto8ehu-100" vertex="1">
          <mxGeometry x="875" y="92.5" width="30" height="30" as="geometry" />
        </mxCell>
        <mxCell id="tPrnqZLxL2Oyq7Z4bfn5-26" style="edgeStyle=elbowEdgeStyle;html=1;labelBackgroundColor=none;endArrow=open;endSize=8;strokeColor=#ff0000;fontFamily=Verdana;fontSize=12;align=left;" parent="MEASq9r_x-gCQqto8ehu-100" source="tPrnqZLxL2Oyq7Z4bfn5-27" target="tPrnqZLxL2Oyq7Z4bfn5-24" edge="1">
          <mxGeometry relative="1" as="geometry" />
        </mxCell>
        <mxCell id="tPrnqZLxL2Oyq7Z4bfn5-27" value="" style="ellipse;html=1;shape=startState;fillColor=#000000;strokeColor=#ff0000;rounded=1;shadow=0;comic=0;labelBackgroundColor=none;fontFamily=Verdana;fontSize=12;fontColor=#000000;align=center;direction=south;" parent="MEASq9r_x-gCQqto8ehu-100" vertex="1">
          <mxGeometry x="25" y="62.5" width="30" height="30" as="geometry" />
        </mxCell>
        <mxCell id="tPrnqZLxL2Oyq7Z4bfn5-29" value="Resident Unit # input" style="rounded=1;whiteSpace=wrap;html=1;arcSize=24;fillColor=#ffffc0;strokeColor=#ff0000;shadow=0;comic=0;labelBackgroundColor=none;fontFamily=Verdana;fontSize=12;fontColor=#000000;align=center;" parent="MEASq9r_x-gCQqto8ehu-100" vertex="1">
          <mxGeometry x="295" y="77.5" width="120" height="60" as="geometry" />
        </mxCell>
        <mxCell id="tPrnqZLxL2Oyq7Z4bfn5-23" style="edgeStyle=elbowEdgeStyle;html=1;labelBackgroundColor=none;endArrow=open;endSize=8;strokeColor=#ff0000;fontFamily=Verdana;fontSize=12;align=left;" parent="MEASq9r_x-gCQqto8ehu-100" source="tPrnqZLxL2Oyq7Z4bfn5-24" target="tPrnqZLxL2Oyq7Z4bfn5-29" edge="1">
          <mxGeometry relative="1" as="geometry" />
        </mxCell>
        <mxCell id="tPrnqZLxL2Oyq7Z4bfn5-31" value="Resident Email input" style="rounded=1;whiteSpace=wrap;html=1;arcSize=24;fillColor=#ffffc0;strokeColor=#ff0000;shadow=0;comic=0;labelBackgroundColor=none;fontFamily=Verdana;fontSize=12;fontColor=#000000;align=center;" parent="MEASq9r_x-gCQqto8ehu-100" vertex="1">
          <mxGeometry x="465" y="77.5" width="120" height="60" as="geometry" />
        </mxCell>
        <mxCell id="tPrnqZLxL2Oyq7Z4bfn5-28" style="edgeStyle=elbowEdgeStyle;html=1;labelBackgroundColor=none;endArrow=open;endSize=8;strokeColor=#ff0000;fontFamily=Verdana;fontSize=12;align=left;" parent="MEASq9r_x-gCQqto8ehu-100" source="tPrnqZLxL2Oyq7Z4bfn5-29" target="tPrnqZLxL2Oyq7Z4bfn5-31" edge="1">
          <mxGeometry relative="1" as="geometry" />
        </mxCell>
        <mxCell id="tPrnqZLxL2Oyq7Z4bfn5-32" value="" style="edgeStyle=orthogonalEdgeStyle;rounded=0;orthogonalLoop=1;jettySize=auto;html=1;" parent="MEASq9r_x-gCQqto8ehu-100" source="tPrnqZLxL2Oyq7Z4bfn5-33" target="tPrnqZLxL2Oyq7Z4bfn5-25" edge="1">
          <mxGeometry relative="1" as="geometry" />
        </mxCell>
        <mxCell id="tPrnqZLxL2Oyq7Z4bfn5-33" value="Resident Info Validation check" style="rounded=1;whiteSpace=wrap;html=1;arcSize=24;fillColor=#ffffc0;strokeColor=#ff0000;shadow=0;comic=0;labelBackgroundColor=none;fontFamily=Verdana;fontSize=12;fontColor=#000000;align=center;" parent="MEASq9r_x-gCQqto8ehu-100" vertex="1">
          <mxGeometry x="655" y="77.5" width="120" height="60" as="geometry" />
        </mxCell>
        <mxCell id="tPrnqZLxL2Oyq7Z4bfn5-30" value="" style="edgeStyle=orthogonalEdgeStyle;rounded=0;orthogonalLoop=1;jettySize=auto;html=1;" parent="MEASq9r_x-gCQqto8ehu-100" source="tPrnqZLxL2Oyq7Z4bfn5-31" target="tPrnqZLxL2Oyq7Z4bfn5-33" edge="1">
          <mxGeometry relative="1" as="geometry" />
        </mxCell>
        <mxCell id="MEASq9r_x-gCQqto8ehu-114" value="Package store app" style="shape=umlFrame;whiteSpace=wrap;html=1;rounded=1;shadow=0;comic=0;labelBackgroundColor=none;strokeWidth=1;fontFamily=Verdana;fontSize=12;align=center;" parent="1" vertex="1">
          <mxGeometry x="-40" y="20" width="960" height="2000" as="geometry" />
        </mxCell>
        <mxCell id="MEASq9r_x-gCQqto8ehu-115" style="edgeStyle=orthogonalEdgeStyle;html=1;labelBackgroundColor=none;endArrow=open;endSize=8;strokeColor=#ff0000;fontFamily=Verdana;fontSize=12;align=left;" parent="1" source="MEASq9r_x-gCQqto8ehu-85" target="MEASq9r_x-gCQqto8ehu-87" edge="1">
          <mxGeometry relative="1" as="geometry" />
        </mxCell>
        <mxCell id="MEASq9r_x-gCQqto8ehu-116" style="edgeStyle=orthogonalEdgeStyle;html=1;labelBackgroundColor=none;endArrow=open;endSize=8;strokeColor=#ff0000;fontFamily=Verdana;fontSize=12;align=left;entryX=0;entryY=0.5;" parent="1" source="MEASq9r_x-gCQqto8ehu-87" target="MEASq9r_x-gCQqto8ehu-90" edge="1">
          <mxGeometry relative="1" as="geometry">
            <Array as="points">
              <mxPoint x="210" y="170" />
            </Array>
          </mxGeometry>
        </mxCell>
        <mxCell id="MEASq9r_x-gCQqto8ehu-117" value="Power on" style="edgeLabel;html=1;align=center;verticalAlign=middle;resizable=0;points=[];" parent="MEASq9r_x-gCQqto8ehu-116" connectable="0" vertex="1">
          <mxGeometry x="0.0375" y="-3" relative="1" as="geometry">
            <mxPoint as="offset" />
          </mxGeometry>
        </mxCell>
        <mxCell id="MEASq9r_x-gCQqto8ehu-118" style="edgeStyle=orthogonalEdgeStyle;html=1;entryX=0.75;entryY=0;labelBackgroundColor=none;endArrow=open;endSize=8;strokeColor=#ff0000;fontFamily=Verdana;fontSize=12;align=left;exitX=0.5;exitY=1;" parent="1" source="MEASq9r_x-gCQqto8ehu-90" target="MEASq9r_x-gCQqto8ehu-86" edge="1">
          <mxGeometry relative="1" as="geometry">
            <mxPoint x="400" y="240" as="sourcePoint" />
            <Array as="points">
              <mxPoint x="380" y="230" />
              <mxPoint x="210" y="230" />
            </Array>
          </mxGeometry>
        </mxCell>
        <mxCell id="MEASq9r_x-gCQqto8ehu-119" value="No errors" style="edgeLabel;html=1;align=center;verticalAlign=middle;resizable=0;points=[];" parent="MEASq9r_x-gCQqto8ehu-118" connectable="0" vertex="1">
          <mxGeometry x="-0.0636" y="-2" relative="1" as="geometry">
            <mxPoint as="offset" />
          </mxGeometry>
        </mxCell>
        <mxCell id="MEASq9r_x-gCQqto8ehu-120" style="edgeStyle=orthogonalEdgeStyle;html=1;exitX=0.25;exitY=0;entryX=0.25;entryY=1;labelBackgroundColor=none;endArrow=open;endSize=8;strokeColor=#ff0000;fontFamily=Verdana;fontSize=12;align=left;" parent="1" source="MEASq9r_x-gCQqto8ehu-86" target="MEASq9r_x-gCQqto8ehu-87" edge="1">
          <mxGeometry relative="1" as="geometry" />
        </mxCell>
        <mxCell id="MEASq9r_x-gCQqto8ehu-121" style="edgeStyle=orthogonalEdgeStyle;html=1;exitX=1;exitY=0.5;entryX=0;entryY=0.5;labelBackgroundColor=none;endArrow=open;endSize=8;strokeColor=#ff0000;fontFamily=Verdana;fontSize=12;align=left;" parent="1" source="MEASq9r_x-gCQqto8ehu-86" target="MEASq9r_x-gCQqto8ehu-96" edge="1">
          <mxGeometry relative="1" as="geometry" />
        </mxCell>
        <mxCell id="MEASq9r_x-gCQqto8ehu-122" style="edgeStyle=orthogonalEdgeStyle;html=1;exitX=0.5;exitY=0;entryX=1;entryY=0.75;labelBackgroundColor=none;endArrow=open;endSize=8;strokeColor=#ff0000;fontFamily=Verdana;fontSize=12;align=left;" parent="1" source="MEASq9r_x-gCQqto8ehu-96" target="MEASq9r_x-gCQqto8ehu-90" edge="1">
          <mxGeometry relative="1" as="geometry" />
        </mxCell>
        <mxCell id="MEASq9r_x-gCQqto8ehu-123" style="edgeStyle=orthogonalEdgeStyle;html=1;exitX=1;exitY=0.25;entryX=0;entryY=0.25;labelBackgroundColor=none;endArrow=open;endSize=8;strokeColor=#ff0000;fontFamily=Verdana;fontSize=12;align=left;" parent="1" source="MEASq9r_x-gCQqto8ehu-96" target="MEASq9r_x-gCQqto8ehu-95" edge="1">
          <mxGeometry relative="1" as="geometry" />
        </mxCell>
        <mxCell id="MEASq9r_x-gCQqto8ehu-124" value="Failure" style="edgeLabel;html=1;align=center;verticalAlign=middle;resizable=0;points=[];" parent="MEASq9r_x-gCQqto8ehu-123" connectable="0" vertex="1">
          <mxGeometry x="-0.0133" y="-4" relative="1" as="geometry">
            <mxPoint as="offset" />
          </mxGeometry>
        </mxCell>
        <mxCell id="MEASq9r_x-gCQqto8ehu-125" style="edgeStyle=elbowEdgeStyle;html=1;labelBackgroundColor=none;endArrow=open;endSize=8;strokeColor=#ff0000;fontFamily=Verdana;fontSize=12;align=left;entryX=0.75;entryY=1;" parent="1" source="MEASq9r_x-gCQqto8ehu-100" target="MEASq9r_x-gCQqto8ehu-86" edge="1">
          <mxGeometry relative="1" as="geometry">
            <mxPoint x="220" y="445" as="sourcePoint" />
            <mxPoint x="220" y="320" as="targetPoint" />
          </mxGeometry>
        </mxCell>
        <mxCell id="MEASq9r_x-gCQqto8ehu-126" value="Cancel" style="edgeLabel;html=1;align=center;verticalAlign=middle;resizable=0;points=[];" parent="MEASq9r_x-gCQqto8ehu-125" connectable="0" vertex="1">
          <mxGeometry x="0.392" y="-1" relative="1" as="geometry">
            <mxPoint as="offset" />
          </mxGeometry>
        </mxCell>
        <mxCell id="MEASq9r_x-gCQqto8ehu-127" style="edgeStyle=elbowEdgeStyle;html=1;labelBackgroundColor=none;endArrow=open;endSize=8;strokeColor=#ff0000;fontFamily=Verdana;fontSize=12;align=left;exitX=0.25;exitY=1;" parent="1" source="MEASq9r_x-gCQqto8ehu-86" target="MEASq9r_x-gCQqto8ehu-100" edge="1">
          <mxGeometry relative="1" as="geometry">
            <mxPoint x="230" y="455" as="sourcePoint" />
            <mxPoint x="230" y="330" as="targetPoint" />
          </mxGeometry>
        </mxCell>
        <mxCell id="MEASq9r_x-gCQqto8ehu-128" value="Login&amp;nbsp; passed" style="edgeLabel;html=1;align=center;verticalAlign=middle;resizable=0;points=[];" parent="MEASq9r_x-gCQqto8ehu-127" connectable="0" vertex="1">
          <mxGeometry x="-0.184" y="-2" relative="1" as="geometry">
            <mxPoint as="offset" />
          </mxGeometry>
        </mxCell>
        <mxCell id="MEASq9r_x-gCQqto8ehu-143" value="Search Resident" style="swimlane;whiteSpace=wrap;html=1;rounded=1;shadow=0;comic=0;labelBackgroundColor=none;strokeWidth=1;fontFamily=Verdana;fontSize=12;align=center;startSize=23;" parent="1" vertex="1">
          <mxGeometry x="-25" y="670" width="930" height="200" as="geometry" />
        </mxCell>
        <mxCell id="tPrnqZLxL2Oyq7Z4bfn5-39" value="Resident Info" style="rounded=1;whiteSpace=wrap;html=1;arcSize=24;fillColor=#ffffc0;strokeColor=#ff0000;shadow=0;comic=0;labelBackgroundColor=none;fontFamily=Verdana;fontSize=12;fontColor=#000000;align=center;" parent="MEASq9r_x-gCQqto8ehu-143" vertex="1">
          <mxGeometry x="125" y="65" width="120" height="60" as="geometry" />
        </mxCell>
        <mxCell id="tPrnqZLxL2Oyq7Z4bfn5-40" value="" style="ellipse;html=1;shape=endState;fillColor=#000000;strokeColor=#ff0000;rounded=1;shadow=0;comic=0;labelBackgroundColor=none;fontFamily=Verdana;fontSize=12;fontColor=#000000;align=center;" parent="MEASq9r_x-gCQqto8ehu-143" vertex="1">
          <mxGeometry x="875" y="80" width="30" height="30" as="geometry" />
        </mxCell>
        <mxCell id="tPrnqZLxL2Oyq7Z4bfn5-41" style="edgeStyle=elbowEdgeStyle;html=1;labelBackgroundColor=none;endArrow=open;endSize=8;strokeColor=#ff0000;fontFamily=Verdana;fontSize=12;align=left;" parent="MEASq9r_x-gCQqto8ehu-143" source="tPrnqZLxL2Oyq7Z4bfn5-42" target="tPrnqZLxL2Oyq7Z4bfn5-39" edge="1">
          <mxGeometry relative="1" as="geometry" />
        </mxCell>
        <mxCell id="tPrnqZLxL2Oyq7Z4bfn5-42" value="" style="ellipse;html=1;shape=startState;fillColor=#000000;strokeColor=#ff0000;rounded=1;shadow=0;comic=0;labelBackgroundColor=none;fontFamily=Verdana;fontSize=12;fontColor=#000000;align=center;direction=south;" parent="MEASq9r_x-gCQqto8ehu-143" vertex="1">
          <mxGeometry x="25" y="50" width="30" height="30" as="geometry" />
        </mxCell>
        <mxCell id="tPrnqZLxL2Oyq7Z4bfn5-44" value="Package History" style="rounded=1;whiteSpace=wrap;html=1;arcSize=24;fillColor=#ffffc0;strokeColor=#ff0000;shadow=0;comic=0;labelBackgroundColor=none;fontFamily=Verdana;fontSize=12;fontColor=#000000;align=center;" parent="MEASq9r_x-gCQqto8ehu-143" vertex="1">
          <mxGeometry x="275" y="65" width="120" height="60" as="geometry" />
        </mxCell>
        <mxCell id="tPrnqZLxL2Oyq7Z4bfn5-38" style="edgeStyle=elbowEdgeStyle;html=1;labelBackgroundColor=none;endArrow=open;endSize=8;strokeColor=#ff0000;fontFamily=Verdana;fontSize=12;align=left;" parent="MEASq9r_x-gCQqto8ehu-143" source="tPrnqZLxL2Oyq7Z4bfn5-39" target="tPrnqZLxL2Oyq7Z4bfn5-44" edge="1">
          <mxGeometry relative="1" as="geometry" />
        </mxCell>
        <mxCell id="tPrnqZLxL2Oyq7Z4bfn5-46" value="Preferred Postal Service Agency" style="rounded=1;whiteSpace=wrap;html=1;arcSize=24;fillColor=#ffffc0;strokeColor=#ff0000;shadow=0;comic=0;labelBackgroundColor=none;fontFamily=Verdana;fontSize=12;fontColor=#000000;align=center;" parent="MEASq9r_x-gCQqto8ehu-143" vertex="1">
          <mxGeometry x="425" y="65" width="120" height="60" as="geometry" />
        </mxCell>
        <mxCell id="tPrnqZLxL2Oyq7Z4bfn5-43" style="edgeStyle=elbowEdgeStyle;html=1;labelBackgroundColor=none;endArrow=open;endSize=8;strokeColor=#ff0000;fontFamily=Verdana;fontSize=12;align=left;" parent="MEASq9r_x-gCQqto8ehu-143" source="tPrnqZLxL2Oyq7Z4bfn5-44" target="tPrnqZLxL2Oyq7Z4bfn5-46" edge="1">
          <mxGeometry relative="1" as="geometry" />
        </mxCell>
        <mxCell id="tPrnqZLxL2Oyq7Z4bfn5-48" value="Move package to unknown" style="rounded=1;whiteSpace=wrap;html=1;arcSize=24;fillColor=#ffffc0;strokeColor=#ff0000;shadow=0;comic=0;labelBackgroundColor=none;fontFamily=Verdana;fontSize=12;fontColor=#000000;align=center;" parent="MEASq9r_x-gCQqto8ehu-143" vertex="1">
          <mxGeometry x="575" y="65" width="120" height="60" as="geometry" />
        </mxCell>
        <mxCell id="tPrnqZLxL2Oyq7Z4bfn5-45" value="" style="edgeStyle=orthogonalEdgeStyle;rounded=0;orthogonalLoop=1;jettySize=auto;html=1;" parent="MEASq9r_x-gCQqto8ehu-143" source="tPrnqZLxL2Oyq7Z4bfn5-46" target="tPrnqZLxL2Oyq7Z4bfn5-48" edge="1">
          <mxGeometry relative="1" as="geometry" />
        </mxCell>
        <mxCell id="tPrnqZLxL2Oyq7Z4bfn5-49" value="" style="edgeStyle=orthogonalEdgeStyle;rounded=0;orthogonalLoop=1;jettySize=auto;html=1;" parent="MEASq9r_x-gCQqto8ehu-143" source="tPrnqZLxL2Oyq7Z4bfn5-50" target="tPrnqZLxL2Oyq7Z4bfn5-40" edge="1">
          <mxGeometry relative="1" as="geometry" />
        </mxCell>
        <mxCell id="tPrnqZLxL2Oyq7Z4bfn5-50" value="Remove pending package/Pick up" style="rounded=1;whiteSpace=wrap;html=1;arcSize=24;fillColor=#ffffc0;strokeColor=#ff0000;shadow=0;comic=0;labelBackgroundColor=none;fontFamily=Verdana;fontSize=12;fontColor=#000000;align=center;" parent="MEASq9r_x-gCQqto8ehu-143" vertex="1">
          <mxGeometry x="725" y="65" width="120" height="60" as="geometry" />
        </mxCell>
        <mxCell id="tPrnqZLxL2Oyq7Z4bfn5-47" value="" style="edgeStyle=orthogonalEdgeStyle;rounded=0;orthogonalLoop=1;jettySize=auto;html=1;" parent="MEASq9r_x-gCQqto8ehu-143" source="tPrnqZLxL2Oyq7Z4bfn5-48" target="tPrnqZLxL2Oyq7Z4bfn5-50" edge="1">
          <mxGeometry relative="1" as="geometry" />
        </mxCell>
        <mxCell id="EfxecktoefjszRo0pu9O-10" value="" style="ellipse;whiteSpace=wrap;html=1;" parent="MEASq9r_x-gCQqto8ehu-143" vertex="1">
          <mxGeometry x="335" y="110" width="20" height="10" as="geometry" />
        </mxCell>
        <mxCell id="EfxecktoefjszRo0pu9O-11" value="" style="ellipse;whiteSpace=wrap;html=1;" parent="MEASq9r_x-gCQqto8ehu-143" vertex="1">
          <mxGeometry x="365" y="110" width="20" height="10" as="geometry" />
        </mxCell>
        <mxCell id="EfxecktoefjszRo0pu9O-12" value="" style="endArrow=none;html=1;rounded=0;exitX=1;exitY=0.5;exitDx=0;exitDy=0;entryX=0;entryY=0.5;entryDx=0;entryDy=0;" parent="MEASq9r_x-gCQqto8ehu-143" source="EfxecktoefjszRo0pu9O-10" target="EfxecktoefjszRo0pu9O-11" edge="1">
          <mxGeometry width="50" height="50" relative="1" as="geometry">
            <mxPoint x="335" y="170" as="sourcePoint" />
            <mxPoint x="385" y="120" as="targetPoint" />
          </mxGeometry>
        </mxCell>
        <mxCell id="MEASq9r_x-gCQqto8ehu-155" value="Resident Management" style="swimlane;whiteSpace=wrap;html=1;rounded=1;shadow=0;comic=0;labelBackgroundColor=none;strokeWidth=1;fontFamily=Verdana;fontSize=12;align=center;startSize=23;" parent="1" vertex="1">
          <mxGeometry x="-25" y="910" width="930" height="200" as="geometry" />
        </mxCell>
        <mxCell id="MEASq9r_x-gCQqto8ehu-156" style="edgeStyle=elbowEdgeStyle;html=1;labelBackgroundColor=none;endArrow=open;endSize=8;strokeColor=#ff0000;fontFamily=Verdana;fontSize=12;align=left;" parent="MEASq9r_x-gCQqto8ehu-155" source="MEASq9r_x-gCQqto8ehu-157" target="MEASq9r_x-gCQqto8ehu-162" edge="1">
          <mxGeometry relative="1" as="geometry" />
        </mxCell>
        <mxCell id="MEASq9r_x-gCQqto8ehu-157" value="Register" style="rounded=1;whiteSpace=wrap;html=1;arcSize=24;fillColor=#ffffc0;strokeColor=#ff0000;shadow=0;comic=0;labelBackgroundColor=none;fontFamily=Verdana;fontSize=12;fontColor=#000000;align=center;" parent="MEASq9r_x-gCQqto8ehu-155" vertex="1">
          <mxGeometry x="125" y="65" width="120" height="60" as="geometry" />
        </mxCell>
        <mxCell id="MEASq9r_x-gCQqto8ehu-158" value="" style="ellipse;html=1;shape=endState;fillColor=#000000;strokeColor=#ff0000;rounded=1;shadow=0;comic=0;labelBackgroundColor=none;fontFamily=Verdana;fontSize=12;fontColor=#000000;align=center;" parent="MEASq9r_x-gCQqto8ehu-155" vertex="1">
          <mxGeometry x="875" y="80" width="30" height="30" as="geometry" />
        </mxCell>
        <mxCell id="MEASq9r_x-gCQqto8ehu-159" style="edgeStyle=elbowEdgeStyle;html=1;labelBackgroundColor=none;endArrow=open;endSize=8;strokeColor=#ff0000;fontFamily=Verdana;fontSize=12;align=left;" parent="MEASq9r_x-gCQqto8ehu-155" source="MEASq9r_x-gCQqto8ehu-160" target="MEASq9r_x-gCQqto8ehu-157" edge="1">
          <mxGeometry relative="1" as="geometry" />
        </mxCell>
        <mxCell id="MEASq9r_x-gCQqto8ehu-160" value="" style="ellipse;html=1;shape=startState;fillColor=#000000;strokeColor=#ff0000;rounded=1;shadow=0;comic=0;labelBackgroundColor=none;fontFamily=Verdana;fontSize=12;fontColor=#000000;align=center;direction=south;" parent="MEASq9r_x-gCQqto8ehu-155" vertex="1">
          <mxGeometry x="25" y="50" width="30" height="30" as="geometry" />
        </mxCell>
        <mxCell id="MEASq9r_x-gCQqto8ehu-161" style="edgeStyle=elbowEdgeStyle;html=1;labelBackgroundColor=none;endArrow=open;endSize=8;strokeColor=#ff0000;fontFamily=Verdana;fontSize=12;align=left;" parent="MEASq9r_x-gCQqto8ehu-155" source="MEASq9r_x-gCQqto8ehu-162" target="MEASq9r_x-gCQqto8ehu-164" edge="1">
          <mxGeometry relative="1" as="geometry" />
        </mxCell>
        <mxCell id="MEASq9r_x-gCQqto8ehu-162" value="Unit #" style="rounded=1;whiteSpace=wrap;html=1;arcSize=24;fillColor=#ffffc0;strokeColor=#ff0000;shadow=0;comic=0;labelBackgroundColor=none;fontFamily=Verdana;fontSize=12;fontColor=#000000;align=center;" parent="MEASq9r_x-gCQqto8ehu-155" vertex="1">
          <mxGeometry x="275" y="65" width="120" height="60" as="geometry" />
        </mxCell>
        <mxCell id="MEASq9r_x-gCQqto8ehu-163" value="" style="edgeStyle=orthogonalEdgeStyle;rounded=0;orthogonalLoop=1;jettySize=auto;html=1;" parent="MEASq9r_x-gCQqto8ehu-155" source="MEASq9r_x-gCQqto8ehu-164" target="MEASq9r_x-gCQqto8ehu-166" edge="1">
          <mxGeometry relative="1" as="geometry" />
        </mxCell>
        <mxCell id="MEASq9r_x-gCQqto8ehu-164" value="Package History" style="rounded=1;whiteSpace=wrap;html=1;arcSize=24;fillColor=#ffffc0;strokeColor=#ff0000;shadow=0;comic=0;labelBackgroundColor=none;fontFamily=Verdana;fontSize=12;fontColor=#000000;align=center;" parent="MEASq9r_x-gCQqto8ehu-155" vertex="1">
          <mxGeometry x="425" y="65" width="120" height="60" as="geometry" />
        </mxCell>
        <mxCell id="MEASq9r_x-gCQqto8ehu-165" value="" style="edgeStyle=orthogonalEdgeStyle;rounded=0;orthogonalLoop=1;jettySize=auto;html=1;" parent="MEASq9r_x-gCQqto8ehu-155" source="MEASq9r_x-gCQqto8ehu-166" target="MEASq9r_x-gCQqto8ehu-168" edge="1">
          <mxGeometry relative="1" as="geometry" />
        </mxCell>
        <mxCell id="MEASq9r_x-gCQqto8ehu-166" value="Pending Packages" style="rounded=1;whiteSpace=wrap;html=1;arcSize=24;fillColor=#ffffc0;strokeColor=#ff0000;shadow=0;comic=0;labelBackgroundColor=none;fontFamily=Verdana;fontSize=12;fontColor=#000000;align=center;" parent="MEASq9r_x-gCQqto8ehu-155" vertex="1">
          <mxGeometry x="575" y="65" width="120" height="60" as="geometry" />
        </mxCell>
        <mxCell id="MEASq9r_x-gCQqto8ehu-167" value="" style="edgeStyle=orthogonalEdgeStyle;rounded=0;orthogonalLoop=1;jettySize=auto;html=1;" parent="MEASq9r_x-gCQqto8ehu-155" source="MEASq9r_x-gCQqto8ehu-168" target="MEASq9r_x-gCQqto8ehu-158" edge="1">
          <mxGeometry relative="1" as="geometry" />
        </mxCell>
        <mxCell id="MEASq9r_x-gCQqto8ehu-168" value="Remove Resident" style="rounded=1;whiteSpace=wrap;html=1;arcSize=24;fillColor=#ffffc0;strokeColor=#ff0000;shadow=0;comic=0;labelBackgroundColor=none;fontFamily=Verdana;fontSize=12;fontColor=#000000;align=center;" parent="MEASq9r_x-gCQqto8ehu-155" vertex="1">
          <mxGeometry x="725" y="65" width="120" height="60" as="geometry" />
        </mxCell>
        <mxCell id="EfxecktoefjszRo0pu9O-7" value="" style="ellipse;whiteSpace=wrap;html=1;" parent="MEASq9r_x-gCQqto8ehu-155" vertex="1">
          <mxGeometry x="485" y="110" width="20" height="10" as="geometry" />
        </mxCell>
        <mxCell id="EfxecktoefjszRo0pu9O-8" value="" style="ellipse;whiteSpace=wrap;html=1;" parent="MEASq9r_x-gCQqto8ehu-155" vertex="1">
          <mxGeometry x="515" y="110" width="20" height="10" as="geometry" />
        </mxCell>
        <mxCell id="EfxecktoefjszRo0pu9O-9" value="" style="endArrow=none;html=1;rounded=0;exitX=1;exitY=0.5;exitDx=0;exitDy=0;entryX=0;entryY=0.5;entryDx=0;entryDy=0;" parent="MEASq9r_x-gCQqto8ehu-155" source="EfxecktoefjszRo0pu9O-7" target="EfxecktoefjszRo0pu9O-8" edge="1">
          <mxGeometry width="50" height="50" relative="1" as="geometry">
            <mxPoint x="485" y="170" as="sourcePoint" />
            <mxPoint x="535" y="120" as="targetPoint" />
          </mxGeometry>
        </mxCell>
        <mxCell id="MEASq9r_x-gCQqto8ehu-169" value="Package History" style="swimlane;whiteSpace=wrap;html=1;rounded=1;shadow=0;comic=0;labelBackgroundColor=none;strokeWidth=1;fontFamily=Verdana;fontSize=12;align=center;startSize=23;" parent="1" vertex="1">
          <mxGeometry x="-25" y="1140" width="930" height="200" as="geometry" />
        </mxCell>
        <mxCell id="MEASq9r_x-gCQqto8ehu-170" style="edgeStyle=elbowEdgeStyle;html=1;labelBackgroundColor=none;endArrow=open;endSize=8;strokeColor=#ff0000;fontFamily=Verdana;fontSize=12;align=left;" parent="MEASq9r_x-gCQqto8ehu-169" source="MEASq9r_x-gCQqto8ehu-171" target="MEASq9r_x-gCQqto8ehu-176" edge="1">
          <mxGeometry relative="1" as="geometry" />
        </mxCell>
        <mxCell id="MEASq9r_x-gCQqto8ehu-171" value="Return Package #" style="rounded=1;whiteSpace=wrap;html=1;arcSize=24;fillColor=#ffffc0;strokeColor=#ff0000;shadow=0;comic=0;labelBackgroundColor=none;fontFamily=Verdana;fontSize=12;fontColor=#000000;align=center;" parent="MEASq9r_x-gCQqto8ehu-169" vertex="1">
          <mxGeometry x="125" y="65" width="120" height="60" as="geometry" />
        </mxCell>
        <mxCell id="MEASq9r_x-gCQqto8ehu-172" value="" style="ellipse;html=1;shape=endState;fillColor=#000000;strokeColor=#ff0000;rounded=1;shadow=0;comic=0;labelBackgroundColor=none;fontFamily=Verdana;fontSize=12;fontColor=#000000;align=center;" parent="MEASq9r_x-gCQqto8ehu-169" vertex="1">
          <mxGeometry x="875" y="80" width="30" height="30" as="geometry" />
        </mxCell>
        <mxCell id="MEASq9r_x-gCQqto8ehu-173" style="edgeStyle=elbowEdgeStyle;html=1;labelBackgroundColor=none;endArrow=open;endSize=8;strokeColor=#ff0000;fontFamily=Verdana;fontSize=12;align=left;" parent="MEASq9r_x-gCQqto8ehu-169" source="MEASq9r_x-gCQqto8ehu-174" target="MEASq9r_x-gCQqto8ehu-171" edge="1">
          <mxGeometry relative="1" as="geometry" />
        </mxCell>
        <mxCell id="MEASq9r_x-gCQqto8ehu-174" value="" style="ellipse;html=1;shape=startState;fillColor=#000000;strokeColor=#ff0000;rounded=1;shadow=0;comic=0;labelBackgroundColor=none;fontFamily=Verdana;fontSize=12;fontColor=#000000;align=center;direction=south;" parent="MEASq9r_x-gCQqto8ehu-169" vertex="1">
          <mxGeometry x="25" y="50" width="30" height="30" as="geometry" />
        </mxCell>
        <mxCell id="MEASq9r_x-gCQqto8ehu-175" style="edgeStyle=elbowEdgeStyle;html=1;labelBackgroundColor=none;endArrow=open;endSize=8;strokeColor=#ff0000;fontFamily=Verdana;fontSize=12;align=left;" parent="MEASq9r_x-gCQqto8ehu-169" source="MEASq9r_x-gCQqto8ehu-176" target="MEASq9r_x-gCQqto8ehu-178" edge="1">
          <mxGeometry relative="1" as="geometry" />
        </mxCell>
        <mxCell id="MEASq9r_x-gCQqto8ehu-176" value="Package Information" style="rounded=1;whiteSpace=wrap;html=1;arcSize=24;fillColor=#ffffc0;strokeColor=#ff0000;shadow=0;comic=0;labelBackgroundColor=none;fontFamily=Verdana;fontSize=12;fontColor=#000000;align=center;" parent="MEASq9r_x-gCQqto8ehu-169" vertex="1">
          <mxGeometry x="305" y="65" width="120" height="60" as="geometry" />
        </mxCell>
        <mxCell id="MEASq9r_x-gCQqto8ehu-177" value="" style="edgeStyle=orthogonalEdgeStyle;rounded=0;orthogonalLoop=1;jettySize=auto;html=1;" parent="MEASq9r_x-gCQqto8ehu-169" source="MEASq9r_x-gCQqto8ehu-178" target="MEASq9r_x-gCQqto8ehu-180" edge="1">
          <mxGeometry relative="1" as="geometry" />
        </mxCell>
        <mxCell id="MEASq9r_x-gCQqto8ehu-178" value="Resident" style="rounded=1;whiteSpace=wrap;html=1;arcSize=24;fillColor=#ffffc0;strokeColor=#ff0000;shadow=0;comic=0;labelBackgroundColor=none;fontFamily=Verdana;fontSize=12;fontColor=#000000;align=center;" parent="MEASq9r_x-gCQqto8ehu-169" vertex="1">
          <mxGeometry x="475" y="65" width="120" height="60" as="geometry" />
        </mxCell>
        <mxCell id="MEASq9r_x-gCQqto8ehu-179" value="" style="edgeStyle=orthogonalEdgeStyle;rounded=0;orthogonalLoop=1;jettySize=auto;html=1;entryX=-0.094;entryY=0.533;entryDx=0;entryDy=0;entryPerimeter=0;" parent="MEASq9r_x-gCQqto8ehu-169" source="MEASq9r_x-gCQqto8ehu-180" target="MEASq9r_x-gCQqto8ehu-172" edge="1">
          <mxGeometry relative="1" as="geometry">
            <mxPoint x="725" y="95" as="targetPoint" />
          </mxGeometry>
        </mxCell>
        <mxCell id="MEASq9r_x-gCQqto8ehu-180" value="Status of Package" style="rounded=1;whiteSpace=wrap;html=1;arcSize=24;fillColor=#ffffc0;strokeColor=#ff0000;shadow=0;comic=0;labelBackgroundColor=none;fontFamily=Verdana;fontSize=12;fontColor=#000000;align=center;" parent="MEASq9r_x-gCQqto8ehu-169" vertex="1">
          <mxGeometry x="655" y="65" width="120" height="60" as="geometry" />
        </mxCell>
        <mxCell id="MEASq9r_x-gCQqto8ehu-183" value="Unknown Package Handling" style="swimlane;whiteSpace=wrap;html=1;rounded=1;shadow=0;comic=0;labelBackgroundColor=none;strokeWidth=1;fontFamily=Verdana;fontSize=12;align=center;startSize=23;" parent="1" vertex="1">
          <mxGeometry x="-25" y="1360" width="930" height="200" as="geometry" />
        </mxCell>
        <mxCell id="MEASq9r_x-gCQqto8ehu-184" style="edgeStyle=elbowEdgeStyle;html=1;labelBackgroundColor=none;endArrow=open;endSize=8;strokeColor=#ff0000;fontFamily=Verdana;fontSize=12;align=left;" parent="MEASq9r_x-gCQqto8ehu-183" source="MEASq9r_x-gCQqto8ehu-185" target="MEASq9r_x-gCQqto8ehu-190" edge="1">
          <mxGeometry relative="1" as="geometry" />
        </mxCell>
        <mxCell id="MEASq9r_x-gCQqto8ehu-185" value="Package #" style="rounded=1;whiteSpace=wrap;html=1;arcSize=24;fillColor=#ffffc0;strokeColor=#ff0000;shadow=0;comic=0;labelBackgroundColor=none;fontFamily=Verdana;fontSize=12;fontColor=#000000;align=center;" parent="MEASq9r_x-gCQqto8ehu-183" vertex="1">
          <mxGeometry x="125" y="65" width="120" height="60" as="geometry" />
        </mxCell>
        <mxCell id="MEASq9r_x-gCQqto8ehu-186" value="" style="ellipse;html=1;shape=endState;fillColor=#000000;strokeColor=#ff0000;rounded=1;shadow=0;comic=0;labelBackgroundColor=none;fontFamily=Verdana;fontSize=12;fontColor=#000000;align=center;" parent="MEASq9r_x-gCQqto8ehu-183" vertex="1">
          <mxGeometry x="875" y="80" width="30" height="30" as="geometry" />
        </mxCell>
        <mxCell id="MEASq9r_x-gCQqto8ehu-187" style="edgeStyle=elbowEdgeStyle;html=1;labelBackgroundColor=none;endArrow=open;endSize=8;strokeColor=#ff0000;fontFamily=Verdana;fontSize=12;align=left;" parent="MEASq9r_x-gCQqto8ehu-183" source="MEASq9r_x-gCQqto8ehu-188" target="MEASq9r_x-gCQqto8ehu-185" edge="1">
          <mxGeometry relative="1" as="geometry" />
        </mxCell>
        <mxCell id="MEASq9r_x-gCQqto8ehu-188" value="" style="ellipse;html=1;shape=startState;fillColor=#000000;strokeColor=#ff0000;rounded=1;shadow=0;comic=0;labelBackgroundColor=none;fontFamily=Verdana;fontSize=12;fontColor=#000000;align=center;direction=south;" parent="MEASq9r_x-gCQqto8ehu-183" vertex="1">
          <mxGeometry x="25" y="50" width="30" height="30" as="geometry" />
        </mxCell>
        <mxCell id="MEASq9r_x-gCQqto8ehu-189" style="edgeStyle=elbowEdgeStyle;html=1;labelBackgroundColor=none;endArrow=open;endSize=8;strokeColor=#ff0000;fontFamily=Verdana;fontSize=12;align=left;" parent="MEASq9r_x-gCQqto8ehu-183" source="MEASq9r_x-gCQqto8ehu-190" target="MEASq9r_x-gCQqto8ehu-192" edge="1">
          <mxGeometry relative="1" as="geometry" />
        </mxCell>
        <mxCell id="MEASq9r_x-gCQqto8ehu-190" value="Package Information" style="rounded=1;whiteSpace=wrap;html=1;arcSize=24;fillColor=#ffffc0;strokeColor=#ff0000;shadow=0;comic=0;labelBackgroundColor=none;fontFamily=Verdana;fontSize=12;fontColor=#000000;align=center;" parent="MEASq9r_x-gCQqto8ehu-183" vertex="1">
          <mxGeometry x="315" y="65" width="120" height="60" as="geometry" />
        </mxCell>
        <mxCell id="MEASq9r_x-gCQqto8ehu-191" value="" style="edgeStyle=orthogonalEdgeStyle;rounded=0;orthogonalLoop=1;jettySize=auto;html=1;" parent="MEASq9r_x-gCQqto8ehu-183" source="MEASq9r_x-gCQqto8ehu-192" target="MEASq9r_x-gCQqto8ehu-194" edge="1">
          <mxGeometry relative="1" as="geometry" />
        </mxCell>
        <mxCell id="MEASq9r_x-gCQqto8ehu-192" value="Package History" style="rounded=1;whiteSpace=wrap;html=1;arcSize=24;fillColor=#ffffc0;strokeColor=#ff0000;shadow=0;comic=0;labelBackgroundColor=none;fontFamily=Verdana;fontSize=12;fontColor=#000000;align=center;" parent="MEASq9r_x-gCQqto8ehu-183" vertex="1">
          <mxGeometry x="495" y="65" width="120" height="60" as="geometry" />
        </mxCell>
        <mxCell id="MEASq9r_x-gCQqto8ehu-193" value="" style="edgeStyle=orthogonalEdgeStyle;rounded=0;orthogonalLoop=1;jettySize=auto;html=1;entryX=-0.157;entryY=0.485;entryDx=0;entryDy=0;entryPerimeter=0;" parent="MEASq9r_x-gCQqto8ehu-183" source="MEASq9r_x-gCQqto8ehu-194" target="MEASq9r_x-gCQqto8ehu-186" edge="1">
          <mxGeometry relative="1" as="geometry">
            <mxPoint x="725" y="94.99999999999977" as="targetPoint" />
          </mxGeometry>
        </mxCell>
        <mxCell id="MEASq9r_x-gCQqto8ehu-194" value="Time in Unknown storage" style="rounded=1;whiteSpace=wrap;html=1;arcSize=24;fillColor=#ffffc0;strokeColor=#ff0000;shadow=0;comic=0;labelBackgroundColor=none;fontFamily=Verdana;fontSize=12;fontColor=#000000;align=center;" parent="MEASq9r_x-gCQqto8ehu-183" vertex="1">
          <mxGeometry x="675" y="65" width="120" height="60" as="geometry" />
        </mxCell>
        <mxCell id="EfxecktoefjszRo0pu9O-13" value="" style="ellipse;whiteSpace=wrap;html=1;" parent="MEASq9r_x-gCQqto8ehu-183" vertex="1">
          <mxGeometry x="555" y="110" width="20" height="10" as="geometry" />
        </mxCell>
        <mxCell id="EfxecktoefjszRo0pu9O-14" value="" style="ellipse;whiteSpace=wrap;html=1;" parent="MEASq9r_x-gCQqto8ehu-183" vertex="1">
          <mxGeometry x="585" y="110" width="20" height="10" as="geometry" />
        </mxCell>
        <mxCell id="EfxecktoefjszRo0pu9O-15" value="" style="endArrow=none;html=1;rounded=0;exitX=1;exitY=0.5;exitDx=0;exitDy=0;entryX=0;entryY=0.5;entryDx=0;entryDy=0;" parent="MEASq9r_x-gCQqto8ehu-183" source="EfxecktoefjszRo0pu9O-13" target="EfxecktoefjszRo0pu9O-14" edge="1">
          <mxGeometry width="50" height="50" relative="1" as="geometry">
            <mxPoint x="555" y="170" as="sourcePoint" />
            <mxPoint x="605" y="120" as="targetPoint" />
          </mxGeometry>
        </mxCell>
        <mxCell id="tPrnqZLxL2Oyq7Z4bfn5-34" style="edgeStyle=orthogonalEdgeStyle;rounded=0;orthogonalLoop=1;jettySize=auto;html=1;entryX=0.489;entryY=0.004;entryDx=0;entryDy=0;endArrow=none;endFill=0;entryPerimeter=0;" parent="1" target="MEASq9r_x-gCQqto8ehu-155" edge="1">
          <mxGeometry relative="1" as="geometry">
            <mxPoint x="430" y="870" as="sourcePoint" />
            <mxPoint x="370" y="925" as="targetPoint" />
          </mxGeometry>
        </mxCell>
        <mxCell id="tPrnqZLxL2Oyq7Z4bfn5-35" style="edgeStyle=orthogonalEdgeStyle;rounded=0;orthogonalLoop=1;jettySize=auto;html=1;entryX=0.5;entryY=0;entryDx=0;entryDy=0;endArrow=none;endFill=0;exitX=0.5;exitY=1;exitDx=0;exitDy=0;" parent="1" source="MEASq9r_x-gCQqto8ehu-155" target="MEASq9r_x-gCQqto8ehu-169" edge="1">
          <mxGeometry relative="1" as="geometry">
            <mxPoint x="390" y="1120" as="sourcePoint" />
            <mxPoint x="390" y="1155" as="targetPoint" />
          </mxGeometry>
        </mxCell>
        <mxCell id="tPrnqZLxL2Oyq7Z4bfn5-36" style="edgeStyle=orthogonalEdgeStyle;rounded=0;orthogonalLoop=1;jettySize=auto;html=1;entryX=0.5;entryY=0;entryDx=0;entryDy=0;endArrow=none;endFill=0;exitX=0.5;exitY=1;exitDx=0;exitDy=0;" parent="1" source="MEASq9r_x-gCQqto8ehu-169" target="MEASq9r_x-gCQqto8ehu-183" edge="1">
          <mxGeometry relative="1" as="geometry">
            <mxPoint x="430" y="1340" as="sourcePoint" />
            <mxPoint x="430" y="1375" as="targetPoint" />
          </mxGeometry>
        </mxCell>
        <mxCell id="EfxecktoefjszRo0pu9O-58" style="edgeStyle=orthogonalEdgeStyle;rounded=0;orthogonalLoop=1;jettySize=auto;html=1;entryX=0.5;entryY=0;entryDx=0;entryDy=0;endArrow=none;endFill=0;" parent="1" source="EfxecktoefjszRo0pu9O-16" target="EfxecktoefjszRo0pu9O-38" edge="1">
          <mxGeometry relative="1" as="geometry" />
        </mxCell>
        <mxCell id="EfxecktoefjszRo0pu9O-16" value="Package Pickup" style="swimlane;whiteSpace=wrap;html=1;rounded=1;shadow=0;comic=0;labelBackgroundColor=none;strokeWidth=1;fontFamily=Verdana;fontSize=12;align=center;startSize=23;" parent="1" vertex="1">
          <mxGeometry x="-25" y="1580" width="930" height="200" as="geometry" />
        </mxCell>
        <mxCell id="EfxecktoefjszRo0pu9O-17" style="edgeStyle=elbowEdgeStyle;html=1;labelBackgroundColor=none;endArrow=open;endSize=8;strokeColor=#ff0000;fontFamily=Verdana;fontSize=12;align=left;" parent="EfxecktoefjszRo0pu9O-16" source="EfxecktoefjszRo0pu9O-18" target="EfxecktoefjszRo0pu9O-23" edge="1">
          <mxGeometry relative="1" as="geometry" />
        </mxCell>
        <mxCell id="EfxecktoefjszRo0pu9O-18" value="Package #" style="rounded=1;whiteSpace=wrap;html=1;arcSize=24;fillColor=#ffffc0;strokeColor=#ff0000;shadow=0;comic=0;labelBackgroundColor=none;fontFamily=Verdana;fontSize=12;fontColor=#000000;align=center;" parent="EfxecktoefjszRo0pu9O-16" vertex="1">
          <mxGeometry x="125" y="65" width="120" height="60" as="geometry" />
        </mxCell>
        <mxCell id="EfxecktoefjszRo0pu9O-19" value="" style="ellipse;html=1;shape=endState;fillColor=#000000;strokeColor=#ff0000;rounded=1;shadow=0;comic=0;labelBackgroundColor=none;fontFamily=Verdana;fontSize=12;fontColor=#000000;align=center;" parent="EfxecktoefjszRo0pu9O-16" vertex="1">
          <mxGeometry x="875" y="80" width="30" height="30" as="geometry" />
        </mxCell>
        <mxCell id="EfxecktoefjszRo0pu9O-20" style="edgeStyle=elbowEdgeStyle;html=1;labelBackgroundColor=none;endArrow=open;endSize=8;strokeColor=#ff0000;fontFamily=Verdana;fontSize=12;align=left;" parent="EfxecktoefjszRo0pu9O-16" source="EfxecktoefjszRo0pu9O-21" target="EfxecktoefjszRo0pu9O-18" edge="1">
          <mxGeometry relative="1" as="geometry" />
        </mxCell>
        <mxCell id="EfxecktoefjszRo0pu9O-21" value="" style="ellipse;html=1;shape=startState;fillColor=#000000;strokeColor=#ff0000;rounded=1;shadow=0;comic=0;labelBackgroundColor=none;fontFamily=Verdana;fontSize=12;fontColor=#000000;align=center;direction=south;" parent="EfxecktoefjszRo0pu9O-16" vertex="1">
          <mxGeometry x="25" y="50" width="30" height="30" as="geometry" />
        </mxCell>
        <mxCell id="EfxecktoefjszRo0pu9O-22" style="edgeStyle=elbowEdgeStyle;html=1;labelBackgroundColor=none;endArrow=open;endSize=8;strokeColor=#ff0000;fontFamily=Verdana;fontSize=12;align=left;entryX=0;entryY=0.5;entryDx=0;entryDy=0;" parent="EfxecktoefjszRo0pu9O-16" source="EfxecktoefjszRo0pu9O-23" target="EfxecktoefjszRo0pu9O-27" edge="1">
          <mxGeometry relative="1" as="geometry">
            <mxPoint x="495" y="95" as="targetPoint" />
          </mxGeometry>
        </mxCell>
        <mxCell id="EfxecktoefjszRo0pu9O-23" value="Resident Info" style="rounded=1;whiteSpace=wrap;html=1;arcSize=24;fillColor=#ffffc0;strokeColor=#ff0000;shadow=0;comic=0;labelBackgroundColor=none;fontFamily=Verdana;fontSize=12;fontColor=#000000;align=center;" parent="EfxecktoefjszRo0pu9O-16" vertex="1">
          <mxGeometry x="315" y="65" width="120" height="60" as="geometry" />
        </mxCell>
        <mxCell id="EfxecktoefjszRo0pu9O-28" value="" style="ellipse;whiteSpace=wrap;html=1;" parent="EfxecktoefjszRo0pu9O-16" vertex="1">
          <mxGeometry x="745" y="110" width="20" height="10" as="geometry" />
        </mxCell>
        <mxCell id="EfxecktoefjszRo0pu9O-29" value="" style="ellipse;whiteSpace=wrap;html=1;" parent="EfxecktoefjszRo0pu9O-16" vertex="1">
          <mxGeometry x="775" y="110" width="20" height="10" as="geometry" />
        </mxCell>
        <mxCell id="EfxecktoefjszRo0pu9O-30" value="" style="endArrow=none;html=1;rounded=0;exitX=1;exitY=0.5;exitDx=0;exitDy=0;entryX=0;entryY=0.5;entryDx=0;entryDy=0;" parent="EfxecktoefjszRo0pu9O-16" source="EfxecktoefjszRo0pu9O-28" target="EfxecktoefjszRo0pu9O-29" edge="1">
          <mxGeometry width="50" height="50" relative="1" as="geometry">
            <mxPoint x="745" y="170" as="sourcePoint" />
            <mxPoint x="795" y="120" as="targetPoint" />
          </mxGeometry>
        </mxCell>
        <mxCell id="EfxecktoefjszRo0pu9O-33" value="" style="edgeStyle=orthogonalEdgeStyle;rounded=0;orthogonalLoop=1;jettySize=auto;html=1;" parent="EfxecktoefjszRo0pu9O-16" source="EfxecktoefjszRo0pu9O-31" target="EfxecktoefjszRo0pu9O-19" edge="1">
          <mxGeometry relative="1" as="geometry" />
        </mxCell>
        <mxCell id="EfxecktoefjszRo0pu9O-31" value="Package Arrival" style="rounded=1;whiteSpace=wrap;html=1;arcSize=24;fillColor=#ffffc0;strokeColor=#ff0000;shadow=0;comic=0;labelBackgroundColor=none;fontFamily=Verdana;fontSize=12;fontColor=#000000;align=center;" parent="EfxecktoefjszRo0pu9O-16" vertex="1">
          <mxGeometry x="685" y="65" width="120" height="60" as="geometry" />
        </mxCell>
        <mxCell id="EfxecktoefjszRo0pu9O-32" value="" style="edgeStyle=orthogonalEdgeStyle;rounded=0;orthogonalLoop=1;jettySize=auto;html=1;" parent="EfxecktoefjszRo0pu9O-16" source="EfxecktoefjszRo0pu9O-27" target="EfxecktoefjszRo0pu9O-31" edge="1">
          <mxGeometry relative="1" as="geometry" />
        </mxCell>
        <mxCell id="EfxecktoefjszRo0pu9O-27" value="Pending package" style="rounded=1;whiteSpace=wrap;html=1;arcSize=24;fillColor=#ffffc0;strokeColor=#ff0000;shadow=0;comic=0;labelBackgroundColor=none;fontFamily=Verdana;fontSize=12;fontColor=#000000;align=center;" parent="EfxecktoefjszRo0pu9O-16" vertex="1">
          <mxGeometry x="505" y="65" width="120" height="60" as="geometry" />
        </mxCell>
        <mxCell id="EfxecktoefjszRo0pu9O-35" value="" style="ellipse;whiteSpace=wrap;html=1;" parent="EfxecktoefjszRo0pu9O-16" vertex="1">
          <mxGeometry x="745" y="110" width="20" height="10" as="geometry" />
        </mxCell>
        <mxCell id="EfxecktoefjszRo0pu9O-36" value="" style="ellipse;whiteSpace=wrap;html=1;" parent="EfxecktoefjszRo0pu9O-16" vertex="1">
          <mxGeometry x="775" y="110" width="20" height="10" as="geometry" />
        </mxCell>
        <mxCell id="EfxecktoefjszRo0pu9O-37" value="" style="endArrow=none;html=1;rounded=0;exitX=1;exitY=0.5;exitDx=0;exitDy=0;entryX=0;entryY=0.5;entryDx=0;entryDy=0;" parent="EfxecktoefjszRo0pu9O-16" source="EfxecktoefjszRo0pu9O-35" target="EfxecktoefjszRo0pu9O-36" edge="1">
          <mxGeometry width="50" height="50" relative="1" as="geometry">
            <mxPoint x="745" y="170" as="sourcePoint" />
            <mxPoint x="795" y="120" as="targetPoint" />
          </mxGeometry>
        </mxCell>
        <mxCell id="EfxecktoefjszRo0pu9O-38" value="Package Arrival" style="swimlane;whiteSpace=wrap;html=1;rounded=1;shadow=0;comic=0;labelBackgroundColor=none;strokeWidth=1;fontFamily=Verdana;fontSize=12;align=center;startSize=23;" parent="1" vertex="1">
          <mxGeometry x="-25" y="1800" width="930" height="200" as="geometry" />
        </mxCell>
        <mxCell id="EfxecktoefjszRo0pu9O-39" style="edgeStyle=elbowEdgeStyle;html=1;labelBackgroundColor=none;endArrow=open;endSize=8;strokeColor=#ff0000;fontFamily=Verdana;fontSize=12;align=left;entryX=0;entryY=0.5;entryDx=0;entryDy=0;" parent="EfxecktoefjszRo0pu9O-38" source="EfxecktoefjszRo0pu9O-40" target="EfxecktoefjszRo0pu9O-52" edge="1">
          <mxGeometry relative="1" as="geometry">
            <mxPoint x="315" y="95" as="targetPoint" />
          </mxGeometry>
        </mxCell>
        <mxCell id="EfxecktoefjszRo0pu9O-40" value="Package Confirmation" style="rounded=1;whiteSpace=wrap;html=1;arcSize=24;fillColor=#ffffc0;strokeColor=#ff0000;shadow=0;comic=0;labelBackgroundColor=none;fontFamily=Verdana;fontSize=12;fontColor=#000000;align=center;" parent="EfxecktoefjszRo0pu9O-38" vertex="1">
          <mxGeometry x="125" y="65" width="120" height="60" as="geometry" />
        </mxCell>
        <mxCell id="EfxecktoefjszRo0pu9O-41" value="" style="ellipse;html=1;shape=endState;fillColor=#000000;strokeColor=#ff0000;rounded=1;shadow=0;comic=0;labelBackgroundColor=none;fontFamily=Verdana;fontSize=12;fontColor=#000000;align=center;" parent="EfxecktoefjszRo0pu9O-38" vertex="1">
          <mxGeometry x="875" y="80" width="30" height="30" as="geometry" />
        </mxCell>
        <mxCell id="EfxecktoefjszRo0pu9O-42" style="edgeStyle=elbowEdgeStyle;html=1;labelBackgroundColor=none;endArrow=open;endSize=8;strokeColor=#ff0000;fontFamily=Verdana;fontSize=12;align=left;" parent="EfxecktoefjszRo0pu9O-38" source="EfxecktoefjszRo0pu9O-43" target="EfxecktoefjszRo0pu9O-40" edge="1">
          <mxGeometry relative="1" as="geometry" />
        </mxCell>
        <mxCell id="EfxecktoefjszRo0pu9O-43" value="" style="ellipse;html=1;shape=startState;fillColor=#000000;strokeColor=#ff0000;rounded=1;shadow=0;comic=0;labelBackgroundColor=none;fontFamily=Verdana;fontSize=12;fontColor=#000000;align=center;direction=south;" parent="EfxecktoefjszRo0pu9O-38" vertex="1">
          <mxGeometry x="25" y="50" width="30" height="30" as="geometry" />
        </mxCell>
        <mxCell id="EfxecktoefjszRo0pu9O-46" value="" style="ellipse;whiteSpace=wrap;html=1;" parent="EfxecktoefjszRo0pu9O-38" vertex="1">
          <mxGeometry x="705" y="110" width="20" height="10" as="geometry" />
        </mxCell>
        <mxCell id="EfxecktoefjszRo0pu9O-47" value="" style="ellipse;whiteSpace=wrap;html=1;" parent="EfxecktoefjszRo0pu9O-38" vertex="1">
          <mxGeometry x="735" y="110" width="20" height="10" as="geometry" />
        </mxCell>
        <mxCell id="EfxecktoefjszRo0pu9O-48" value="" style="endArrow=none;html=1;rounded=0;exitX=1;exitY=0.5;exitDx=0;exitDy=0;entryX=0;entryY=0.5;entryDx=0;entryDy=0;" parent="EfxecktoefjszRo0pu9O-38" source="EfxecktoefjszRo0pu9O-46" target="EfxecktoefjszRo0pu9O-47" edge="1">
          <mxGeometry width="50" height="50" relative="1" as="geometry">
            <mxPoint x="705" y="170" as="sourcePoint" />
            <mxPoint x="755" y="120" as="targetPoint" />
          </mxGeometry>
        </mxCell>
        <mxCell id="EfxecktoefjszRo0pu9O-49" value="" style="edgeStyle=orthogonalEdgeStyle;rounded=0;orthogonalLoop=1;jettySize=auto;html=1;" parent="EfxecktoefjszRo0pu9O-38" source="EfxecktoefjszRo0pu9O-50" target="EfxecktoefjszRo0pu9O-41" edge="1">
          <mxGeometry relative="1" as="geometry" />
        </mxCell>
        <mxCell id="EfxecktoefjszRo0pu9O-50" value="Pickup" style="rounded=1;whiteSpace=wrap;html=1;arcSize=24;fillColor=#ffffc0;strokeColor=#ff0000;shadow=0;comic=0;labelBackgroundColor=none;fontFamily=Verdana;fontSize=12;fontColor=#000000;align=center;" parent="EfxecktoefjszRo0pu9O-38" vertex="1">
          <mxGeometry x="645" y="65" width="120" height="60" as="geometry" />
        </mxCell>
        <mxCell id="EfxecktoefjszRo0pu9O-51" value="" style="edgeStyle=orthogonalEdgeStyle;rounded=0;orthogonalLoop=1;jettySize=auto;html=1;" parent="EfxecktoefjszRo0pu9O-38" source="EfxecktoefjszRo0pu9O-52" target="EfxecktoefjszRo0pu9O-50" edge="1">
          <mxGeometry relative="1" as="geometry" />
        </mxCell>
        <mxCell id="EfxecktoefjszRo0pu9O-52" value="Package Information" style="rounded=1;whiteSpace=wrap;html=1;arcSize=24;fillColor=#ffffc0;strokeColor=#ff0000;shadow=0;comic=0;labelBackgroundColor=none;fontFamily=Verdana;fontSize=12;fontColor=#000000;align=center;" parent="EfxecktoefjszRo0pu9O-38" vertex="1">
          <mxGeometry x="405" y="65" width="120" height="60" as="geometry" />
        </mxCell>
        <mxCell id="EfxecktoefjszRo0pu9O-53" value="" style="ellipse;whiteSpace=wrap;html=1;" parent="EfxecktoefjszRo0pu9O-38" vertex="1">
          <mxGeometry x="705" y="110" width="20" height="10" as="geometry" />
        </mxCell>
        <mxCell id="EfxecktoefjszRo0pu9O-54" value="" style="ellipse;whiteSpace=wrap;html=1;" parent="EfxecktoefjszRo0pu9O-38" vertex="1">
          <mxGeometry x="735" y="110" width="20" height="10" as="geometry" />
        </mxCell>
        <mxCell id="EfxecktoefjszRo0pu9O-55" value="" style="endArrow=none;html=1;rounded=0;exitX=1;exitY=0.5;exitDx=0;exitDy=0;entryX=0;entryY=0.5;entryDx=0;entryDy=0;" parent="EfxecktoefjszRo0pu9O-38" source="EfxecktoefjszRo0pu9O-53" target="EfxecktoefjszRo0pu9O-54" edge="1">
          <mxGeometry width="50" height="50" relative="1" as="geometry">
            <mxPoint x="705" y="170" as="sourcePoint" />
            <mxPoint x="755" y="120" as="targetPoint" />
          </mxGeometry>
        </mxCell>
        <mxCell id="EfxecktoefjszRo0pu9O-56" style="edgeStyle=orthogonalEdgeStyle;rounded=0;orthogonalLoop=1;jettySize=auto;html=1;entryX=0.5;entryY=-0.017;entryDx=0;entryDy=0;entryPerimeter=0;endArrow=none;endFill=0;" parent="1" source="MEASq9r_x-gCQqto8ehu-183" target="EfxecktoefjszRo0pu9O-16" edge="1">
          <mxGeometry relative="1" as="geometry" />
        </mxCell>
      </root>
    </mxGraphModel>
  </diagram>
</mxfile>
